<?xml version="1.0" encoding="utf-8"?>
<!-- Generator: Adobe Illustrator 21.1.0, SVG Export Plug-In . SVG Version: 6.00 Build 0)  -->
<svg version="1.1" id="Capa_1" xmlns="http://www.w3.org/2000/svg" xmlns:xlink="http://www.w3.org/1999/xlink" x="0px" y="0px"
	 viewBox="0 0 328.2 76.3" style="enable-background:new 0 0 328.2 76.3;" xml:space="preserve">
<style type="text/css">
	.st0{fill:#FFFFFF;}
</style>
<g>
	<path class="st0" d="M11.3,0.4C5.2,0.3,0,5,0,10.8v50.9c0,2.8,1.3,5.5,3.4,7.5c2.4,2.3,4.7,3.1,7.9,3.1c2.9,0,5.6-1.2,7.5-3
		c2.1-2,3.7-4.9,3.7-7.6l0-50.8C22.4,5.1,17.3,0.4,11.3,0.4"/>
	<path class="st0" d="M177.8,56.1l-6.8-43.5c-0.8-5.1-2.8-12-11.3-12c-7.6,0-8.7,2.5-12.7,10.3l-9.4,22.3l-9.4-22.3
		c-4-7.7-5.1-10.3-12.7-10.3c-8.5,0-10.5,6.9-11.3,12L97.3,56c-0.2,1.1-0.2,2.3-0.4,3.5c-0.8,6.3,4.6,12.3,11.4,12.3
		c8.6,0,10.4-6.6,10.9-8.9l2.9-14.4l5.4,14c2,3.8,4.2,9.3,10.1,9.3c5.8,0,8.4-5.5,10.3-9.3l5.5-14.3l2.6,14.8
		c0.4,2.1,2.3,8.9,10.9,8.9c6.7,0,12.4-6,11.4-12.3C178,58.3,177.9,57.2,177.8,56.1"/>
	<path class="st0" d="M212,25.3c-1.9-0.7-4.3-2.8-3.7-4.9c0.7-2.4,3-3.2,5.1-2.7c2.4,0.6,4.2,2.5,6.1,3.9c3.1,2.3,7.3,3.6,11,1.4
		c3.8-2.2,4.7-7.2,2.9-11.2c-2.5-5.6-7.9-8.6-13.3-10.1c-8.6-2-22.8-2.8-30.5,8.9c-2.4,3.4-4.9,13.4-1,21.2
		c3.8,8.1,13.1,10.6,21,12.9c2.4,0.7,5.8,2.4,4.9,5.4c-0.7,2.1-2.8,2.7-4.8,2.5c-3.2-0.2-5.6-2.4-8.1-4.1c-2.7-1.8-6.1-3.2-9.4-3.1
		c-6.8,0.1-9.9,8.1-7.9,13.9c0.5,1.6,1.6,3.5,2.8,4.7c1.1,1.1,2.4,2.1,3.7,3c8.8,6.8,27.9,7.9,38.4-0.1c4.6-3.7,7.2-9.3,7.9-15.8
		C238.2,34.9,223.8,29.9,212,25.3"/>
	<path class="st0" d="M269.2,25.2c12.9,0,23.4,10.6,23.4,23.7c0,13.1-10.5,23.7-23.4,23.7c-12.9,0-23.4-10.6-23.4-23.7
		C245.8,35.8,256.3,25.2,269.2,25.2"/>
	<path class="st0" d="M257.1,22.8c6.2,0,11.3-5.1,11.3-11.4c0-6.3-5-11.4-11.3-11.4c-6.2,0-11.2,5.1-11.3,11.4
		C245.9,17.7,250.9,22.8,257.1,22.8"/>
	<path class="st0" d="M284.2,23c6.1,0,11.1-5,11.1-11.2c0-6.2-4.9-11.2-11.1-11.2c-6.1,0-11,5-11,11.2C273.1,18,278.1,23,284.2,23"
		/>
	<path class="st0" d="M315.3,29.8c0-6.2-4.9-11.2-11-11.2c-6.1,0-11,5-11,11.2c0,6.2,4.9,11.2,11,11.2C310.4,41,315.3,36,315.3,29.8
		"/>
	<path class="st0" d="M308.9,44.6c-6.2,0-11.3,5.1-11.3,11.4c0,6.3,5.1,11.4,11.3,11.4c6.2,0,11.3-5.1,11.3-11.4
		C320.1,49.7,315.1,44.6,308.9,44.6"/>
	<path class="st0" d="M91.4,56.7L74.2,15.9C71.3,8.4,68.9,0.6,59.7,0.6c-9.4,0-11.7,8-14.8,15.4L28.1,56.7
		c-2.6,6.9-0.6,12.4,5.2,14.9c5.9,2.5,11.7-0.3,14.6-6.6l3.7-7.5h17.1l3.1,7.5c2.3,6.4,8.5,9.2,14.4,6.7C92,69.1,94,63.6,91.4,56.7
		 M59.6,46.6c-3.1,0-5.7-2.6-5.7-5.7c0-3.2,2.5-5.7,5.7-5.7c3.1,0,5.7,2.6,5.7,5.7C65.2,44,62.7,46.6,59.6,46.6"/>
	<path class="st0" d="M321.9,39h-1.1v-0.7h2.9V39h-1.1v2.9h-0.8V39z M324.6,38.3h0.9l0.9,1.5l0.9-1.5h0.8v3.6h-0.8v-2.4l-1,1.6h-0.1
		l-1-1.6v2.4h-0.8V38.3z"/>
	<path class="st0" d="M298.9,73c0-0.2,0.2-0.4,0.4-0.4h1.3c0.4,0,0.8,0.1,1,0.3c0.2,0.2,0.3,0.4,0.3,0.6v0c0,0.4-0.2,0.7-0.5,0.8
		c0.4,0.2,0.7,0.4,0.7,0.9v0c0,0.7-0.6,1-1.4,1h-1.4c-0.2,0-0.4-0.2-0.4-0.4V73z M300.4,74.1c0.4,0,0.6-0.1,0.6-0.4v0
		c0-0.2-0.2-0.4-0.5-0.4h-0.8v0.8H300.4z M300.7,75.6c0.4,0,0.6-0.1,0.6-0.4v0c0-0.3-0.2-0.4-0.6-0.4h-1v0.8H300.7z"/>
	<path class="st0" d="M302.8,73c0-0.2,0.2-0.4,0.4-0.4h1.3c0.5,0,0.8,0.1,1.1,0.4c0.2,0.2,0.3,0.5,0.3,0.9v0c0,0.6-0.3,1-0.7,1.1
		l0.6,0.7c0.1,0.1,0.1,0.2,0.1,0.3c0,0.2-0.2,0.4-0.4,0.4c-0.2,0-0.3-0.1-0.4-0.2l-0.8-1h-0.7v0.8c0,0.2-0.2,0.4-0.4,0.4
		c-0.2,0-0.4-0.2-0.4-0.4V73z M304.5,74.4c0.4,0,0.6-0.2,0.6-0.5v0c0-0.4-0.2-0.5-0.6-0.5h-0.8v1.1H304.5z"/>
	<path class="st0" d="M306.6,75.8l1.3-2.9c0.1-0.2,0.3-0.3,0.5-0.3h0c0.2,0,0.4,0.1,0.5,0.3l1.3,2.9c0,0.1,0,0.1,0,0.2
		c0,0.2-0.2,0.4-0.4,0.4c-0.2,0-0.3-0.1-0.4-0.3l-0.3-0.6h-1.6l-0.3,0.6c-0.1,0.2-0.2,0.3-0.4,0.3c-0.2,0-0.4-0.2-0.4-0.4
		C306.6,75.9,306.6,75.8,306.6,75.8 M308.9,74.7l-0.5-1.2l-0.5,1.2H308.9z"/>
	<path class="st0" d="M311,72.9c0-0.2,0.2-0.4,0.4-0.4h0.1c0.2,0,0.3,0.1,0.4,0.2l1.6,2.1v-1.9c0-0.2,0.2-0.4,0.4-0.4
		c0.2,0,0.4,0.2,0.4,0.4v3c0,0.2-0.2,0.4-0.4,0.4h0c-0.2,0-0.3-0.1-0.4-0.2l-1.6-2.2v2c0,0.2-0.2,0.4-0.4,0.4
		c-0.2,0-0.4-0.2-0.4-0.4V72.9z"/>
	<path class="st0" d="M315.3,73c0-0.2,0.2-0.4,0.4-0.4h1c1.2,0,2,0.8,2,1.9v0c0,1.1-0.8,1.9-2,1.9h-1c-0.2,0-0.4-0.2-0.4-0.4V73z
		 M316.8,75.5c0.7,0,1.1-0.5,1.1-1.1v0c0-0.7-0.5-1.1-1.1-1.1h-0.6v2.3H316.8z"/>
</g>
</svg>
